<svg width="79" height="13" viewBox="0 0 79 13" fill="none" xmlns="http://www.w3.org/2000/svg">
<rect opacity="0.35" x="50.8417" y="0.5" width="24" height="12" rx="3.8" stroke="black"/>
<path opacity="0.4" d="M76.3417 4.78113V8.8566C77.1464 8.51143 77.6697 7.70847 77.6697 6.81886C77.6697 5.92926 77.1464 5.1263 76.3417 4.78113Z" fill="black"/>
<rect x="52.3417" y="2" width="21" height="9" rx="2.5" fill="black"/>
<path fill-rule="evenodd" clip-rule="evenodd" d="M34.7713 3.10404C37.2584 3.10414 39.6504 4.02623 41.4529 5.67971C41.5887 5.80736 41.8056 5.80575 41.9393 5.6761L43.2368 4.41263C43.3045 4.34687 43.3422 4.25779 43.3417 4.16511C43.3411 4.07243 43.3023 3.98379 43.2338 3.91879C38.5028 -0.455922 31.0391 -0.455922 26.3081 3.91879C26.2395 3.98374 26.2007 4.07235 26.2 4.16504C26.1994 4.25772 26.2371 4.34682 26.3047 4.41263L27.6026 5.6761C27.7362 5.80595 27.9533 5.80756 28.0889 5.67971C29.8917 4.02612 32.284 3.10403 34.7713 3.10404ZM34.768 7.32431C36.1253 7.32423 37.4342 7.83597 38.4403 8.7601C38.5764 8.89125 38.7907 8.88841 38.9234 8.75369L40.2107 7.43438C40.2785 7.36518 40.3161 7.2713 40.3151 7.17375C40.3141 7.0762 40.2746 6.98312 40.2055 6.91533C37.1416 4.02448 32.3969 4.02448 29.3331 6.91533C29.2639 6.98312 29.2244 7.07625 29.2235 7.17383C29.2225 7.27141 29.2603 7.36528 29.3282 7.43438L30.6151 8.75369C30.7478 8.88841 30.9622 8.89125 31.0982 8.7601C32.1037 7.83658 33.4115 7.32488 34.768 7.32431ZM37.2924 10.1179C37.2943 10.2232 37.2572 10.3248 37.1899 10.3986L35.0133 12.8533C34.9495 12.9255 34.8625 12.9661 34.7717 12.9661C34.6809 12.9661 34.594 12.9255 34.5301 12.8533L32.3531 10.3986C32.2859 10.3247 32.2489 10.2231 32.2509 10.1178C32.2529 10.0124 32.2937 9.91267 32.3637 9.84205C33.7538 8.52816 35.7897 8.52816 37.1798 9.84205C37.2497 9.91272 37.2905 10.0125 37.2924 10.1179Z" fill="black"/>
<path fill-rule="evenodd" clip-rule="evenodd" d="M19.2 1.68205C19.2 1.04901 18.7224 0.535828 18.1333 0.535828H17.0667C16.4776 0.535828 16 1.04901 16 1.68205V11.616C16 12.2491 16.4776 12.7622 17.0667 12.7622H18.1333C18.7224 12.7622 19.2 12.2491 19.2 11.616V1.68205ZM11.7659 2.98111H12.8326C13.4217 2.98111 13.8992 3.50661 13.8992 4.15485V11.5885C13.8992 12.2367 13.4217 12.7622 12.8326 12.7622H11.7659C11.1768 12.7622 10.6992 12.2367 10.6992 11.5885V4.15485C10.6992 3.50661 11.1768 2.98111 11.7659 2.98111ZM7.43411 5.63016H6.36745C5.77834 5.63016 5.30078 6.16235 5.30078 6.81884V11.5736C5.30078 12.23 5.77834 12.7622 6.36745 12.7622H7.43411C8.02322 12.7622 8.50078 12.23 8.50078 11.5736V6.81884C8.50078 6.16235 8.02322 5.63016 7.43411 5.63016ZM2.13333 8.07545H1.06667C0.477563 8.07545 0 8.60004 0 9.24715V11.5905C0 12.2377 0.477563 12.7622 1.06667 12.7622H2.13333C2.72244 12.7622 3.2 12.2377 3.2 11.5905V9.24715C3.2 8.60004 2.72244 8.07545 2.13333 8.07545Z" fill="black"/>
</svg>
