<svg width="16" height="16" viewBox="0 0 16 16" fill="none" xmlns="http://www.w3.org/2000/svg">
<path d="M9.4544 0.667538C9.78494 0.455632 10.2261 0.573843 10.4064 0.92263L11.0036 2.07781C11.1232 2.30918 11.3666 2.44971 11.6268 2.43761L12.9258 2.37718C13.318 2.35894 13.6409 2.6819 13.6227 3.07411L13.5623 4.3731C13.5502 4.63329 13.6907 4.87669 13.9221 4.9963L15.0773 5.59346C15.426 5.77377 15.5442 6.21494 15.3323 6.54548L14.6305 7.64023C14.4899 7.8595 14.4899 8.14056 14.6305 8.35984L15.3323 9.45458C15.5442 9.78513 15.426 10.2263 15.0773 10.4066L13.9221 11.0038C13.6907 11.1234 13.5502 11.3668 13.5623 11.627L13.6227 12.926C13.6409 13.3182 13.318 13.6411 12.9258 13.6229L11.6268 13.5625C11.3666 13.5504 11.1232 13.6909 11.0036 13.9223L10.4064 15.0774C10.2261 15.4262 9.78494 15.5444 9.4544 15.3325L8.35965 14.6307C8.14038 14.4901 7.85932 14.4901 7.64005 14.6307L6.5453 15.3325C6.21475 15.5444 5.77358 15.4262 5.59328 15.0774L4.99611 13.9223C4.8765 13.6909 4.6331 13.5504 4.37292 13.5625L3.07392 13.6229C2.68171 13.6411 2.35875 13.3182 2.377 12.926L2.43742 11.627C2.44953 11.3668 2.309 11.1234 2.07762 11.0038L0.922445 10.4066C0.573658 10.2263 0.455446 9.78513 0.667352 9.45458L1.36918 8.35984C1.50976 8.14056 1.50976 7.8595 1.36918 7.64023L0.667352 6.54548C0.455446 6.21494 0.573658 5.77377 0.922445 5.59346L2.07762 4.9963C2.309 4.87669 2.44953 4.63329 2.43742 4.3731L2.377 3.07411C2.35875 2.6819 2.68171 2.35894 3.07392 2.37718L4.37292 2.43761C4.6331 2.44971 4.8765 2.30918 4.99611 2.07781L5.59328 0.922631C5.77358 0.573844 6.21476 0.455632 6.5453 0.667538L7.64005 1.36937C7.85932 1.50994 8.14038 1.50994 8.35965 1.36937L9.4544 0.667538Z" fill="#4192EF"/>
<path d="M5.29626 8.20306L6.93754 9.7275L10.6665 6.13215" stroke="#F3F4F6" stroke-width="1.33333" stroke-linecap="round" stroke-linejoin="round"/>
</svg>
