<svg width="393" height="89" viewBox="0 0 393 89" fill="none" xmlns="http://www.w3.org/2000/svg">
<rect width="393" height="56" fill="white"/>
<path d="M50.7632 35.3452V27.3539C50.7632 26.1542 50.2841 25.0029 49.4127 24.1783C48.3913 23.2116 46.9742 21.9075 45.8301 20.9942C43.666 19.2665 42.5859 17.8549 40 17.8549C37.4141 17.8549 36.334 19.2665 34.1699 20.9942C33.0258 21.9075 31.6087 23.2116 30.5873 24.1783C29.7159 25.0029 29.2368 26.1542 29.2368 27.3539V35.3452C29.2368 36.8313 30.4415 37.6378 31.9276 37.6378H35.7639C36.3161 37.6378 36.7639 37.19 36.7639 36.6378V32.3006V31.3398C36.7639 29.5289 38.2318 28.0609 40.0427 28.0609C41.8536 28.0609 43.3216 29.5289 43.3216 31.3398V32.3006V36.6378C43.3216 37.19 43.7693 37.6378 44.3216 37.6378H48.0724C49.5585 37.6378 50.7632 36.8313 50.7632 35.3452Z" stroke="#B8B8B8" stroke-width="3"/>
<path d="M123.433 33.1672C125.098 31.4946 126.126 29.1887 126.126 26.6425C126.126 21.5339 121.985 17.3925 116.876 17.3925C111.768 17.3925 107.626 21.5339 107.626 26.6425C107.626 31.7511 111.768 35.8925 116.876 35.8925C119.439 35.8925 121.758 34.8505 123.433 33.1672ZM123.433 33.1672L128.873 38.6075" stroke="black" stroke-width="2" stroke-linecap="round"/>
<path d="M196.5 18.25H192.75C189.436 18.25 186.75 20.9363 186.75 24.25V31.75C186.75 35.0637 189.436 37.75 192.75 37.75H200.25C203.564 37.75 206.25 35.0637 206.25 31.75V28M196.981 27.4534L205.396 19.0384" stroke="#B8B8B8" stroke-width="3" stroke-linecap="round"/>
<path d="M282.648 19.385C279.344 16.7202 275.965 19.385 274.75 20.6099C273.535 19.385 270.156 16.7202 266.852 19.385C263.547 22.0497 262.829 27.5791 267.459 32.2464C272.089 36.9137 274.75 37.7585 274.75 37.7585C274.75 37.7585 277.411 36.9137 282.041 32.2464C286.671 27.5791 285.953 22.0497 282.648 19.385Z" stroke="#B8B8B8" stroke-width="3"/>
<path d="M277.25 46.45C277.25 47.8307 276.131 48.95 274.75 48.95C273.369 48.95 272.25 47.8307 272.25 46.45C272.25 45.0693 273.369 43.95 274.75 43.95C276.131 43.95 277.25 45.0693 277.25 46.45Z" fill="#EA333E"/>
<path d="M345.466 38.4102H360.497C361.933 38.4102 362.924 36.9722 362.413 35.6301C361.202 32.4494 358.152 30.3473 354.749 30.3473H351.166C347.748 30.3473 344.703 32.5033 343.567 35.7265C343.105 37.0369 344.077 38.4102 345.466 38.4102Z" stroke="#B8B8B8" stroke-width="3"/>
<path d="M353.047 25.7291C355.294 25.7291 357.116 23.9071 357.116 21.6595C357.116 19.4118 355.294 17.5898 353.047 17.5898C350.799 17.5898 348.977 19.4118 348.977 21.6595C348.977 23.9071 350.799 25.7291 353.047 25.7291Z" stroke="#B8B8B8" stroke-width="3"/>
<rect width="393" height="33" transform="translate(0 56)" fill="white"/>
<rect x="129.5" y="76" width="134" height="5" rx="2.5" fill="#101010"/>
</svg>
