<svg preserveAspectRatio="none" width="100%" height="100%" overflow="visible" style="display: block;" viewBox="0 0 72 72.0008" fill="none" xmlns="http://www.w3.org/2000/svg">
<path id="Vector" d="M36.0034 0C26.2263 0 24.9993 0.0427512 21.1592 0.217503C17.3267 0.393005 14.7107 0.999761 12.4216 1.89002C10.0539 2.80953 8.04533 4.03954 6.04431 6.04132C4.04179 8.04234 2.81178 10.0509 1.88927 12.4179C0.99676 14.7077 0.389254 17.3244 0.216752 21.1555C0.0450001 24.9955 0 26.2233 0 36.0004C0 45.7775 0.0435011 47.0008 0.217503 50.8408C0.393755 54.6733 1.00051 57.2894 1.89002 59.5784C2.81028 61.9462 4.04029 63.9547 6.04206 65.9557C8.04233 67.9582 10.0509 69.1913 12.4171 70.1108C14.7077 71.001 17.3244 71.6078 21.1562 71.7833C24.9963 71.958 26.2225 72.0008 35.9989 72.0008C45.7767 72.0008 47 71.958 50.84 71.7833C54.6726 71.6078 57.2916 71.001 59.5821 70.1108C61.9491 69.1913 63.9547 67.9582 65.9549 65.9557C67.9575 63.9547 69.1875 61.9462 70.11 59.5791C70.995 57.2894 71.6025 54.6726 71.7825 50.8416C71.955 47.0015 72 45.7775 72 36.0004C72 26.2233 71.955 24.9963 71.7825 21.1562C71.6025 17.3237 70.995 14.7077 70.11 12.4186C69.1875 10.0509 67.9575 8.04234 65.9549 6.04132C63.9524 4.03879 61.9499 2.80878 59.5799 1.89002C57.2848 0.999761 54.6673 0.393005 50.8348 0.217503C46.9947 0.0427512 45.7722 0 35.9921 0H36.0034ZM32.7738 6.48757C33.7324 6.48607 34.8019 6.48757 36.0034 6.48757C45.6155 6.48757 46.7547 6.52207 50.5505 6.69457C54.0606 6.85507 55.9656 7.44158 57.2346 7.93434C58.9146 8.58684 60.1124 9.36685 61.3716 10.6269C62.6317 11.8869 63.4117 13.0869 64.0657 14.7669C64.5584 16.0344 65.1457 17.9394 65.3054 21.4495C65.4779 25.2445 65.5154 26.3845 65.5154 35.9921C65.5154 45.5997 65.4779 46.7398 65.3054 50.5348C65.1449 54.0448 64.5584 55.9499 64.0657 57.2174C63.4132 58.8974 62.6317 60.0937 61.3716 61.3529C60.1116 62.6129 58.9154 63.3929 57.2346 64.0454C55.9671 64.5404 54.0606 65.1255 50.5505 65.286C46.7555 65.4585 45.6155 65.496 36.0034 65.496C26.3905 65.496 25.2513 65.4585 21.4562 65.286C17.9462 65.124 16.0412 64.5374 14.7714 64.0447C13.0914 63.3922 11.8914 62.6122 10.6314 61.3522C9.37135 60.0922 8.59134 58.8951 7.93733 57.2144C7.44458 55.9469 6.85732 54.0418 6.69757 50.5318C6.52507 46.7368 6.49057 45.5967 6.49057 35.9831C6.49057 26.3695 6.52507 25.2355 6.69757 21.4405C6.85807 17.9304 7.44458 16.0254 7.93733 14.7564C8.58984 13.0764 9.37135 11.8764 10.6314 10.6164C11.8914 9.35635 13.0914 8.57634 14.7714 7.92234C16.0404 7.42733 17.9462 6.84232 21.4562 6.68107C24.7773 6.53107 26.0643 6.48607 32.7738 6.47857V6.48757ZM55.2201 12.4651C52.835 12.4651 50.9 14.3979 50.9 16.7837C50.9 19.1687 52.835 21.1037 55.2201 21.1037C57.6051 21.1037 59.5401 19.1687 59.5401 16.7837C59.5401 14.3987 57.6051 12.4636 55.2201 12.4636V12.4651ZM36.0034 17.5127C25.7935 17.5127 17.5157 25.7905 17.5157 36.0004C17.5157 46.2102 25.7935 54.4843 36.0034 54.4843C46.2132 54.4843 54.4881 46.2102 54.4881 36.0004C54.4881 25.7905 46.2132 17.5127 36.0034 17.5127ZM36.0034 24.0003C42.6304 24.0003 48.0035 29.3726 48.0035 36.0004C48.0035 42.6275 42.6304 48.0005 36.0034 48.0005C29.3756 48.0005 24.0033 42.6275 24.0033 36.0004C24.0033 29.3726 29.3756 24.0003 36.0034 24.0003Z" fill="url(#paint0_radial_0_9)"/>
<defs>
<radialGradient id="paint0_radial_0_9" cx="0" cy="0" r="1" gradientUnits="userSpaceOnUse" gradientTransform="translate(19.1251 77.5464) rotate(-93.1537) scale(81.7953 127.433)">
<stop offset="0.182292" stop-color="#FFDD55"/>
<stop offset="0.442708" stop-color="#FF543E"/>
<stop offset="0.671875" stop-color="#D9408A"/>
<stop offset="1" stop-color="#6F15FC"/>
</radialGradient>
</defs>
</svg>
