<svg xmlns="http://www.w3.org/2000/svg" version="1.1" xmlns:xlink="http://www.w3.org/1999/xlink" width="512" height="512" x="0" y="0" viewBox="0 0 512 512" style="enable-background:new 0 0 512 512" xml:space="preserve" class=""><g><path d="M63.3 354.7v-4.5c0-37.9 24.7-79.2 73.8-84.9l11.1-.8c34.2 0 56.5 20.6 56.5 49.5l-.4 5.4c-2.5 21.4-21.4 38.3-44.1 38.3l-6.2-.4c-24.7-2.9-39.2-21.8-39.2-41.6 0-6.2 1.6-12.4 4.5-18.5-11.1 7.8-16.5 19.8-16.5 32.2 0 23.5 18.6 48.2 50.3 49.5h3.3c35.5 0 53.6-19 63.5-43.3 8.7-21.4 10.3-46.2 10.3-71.3l-.4-49.5c0-39.2 4.1-73.4 34.6-90.3 4.5-2.5 7.8-4.5 7.8-5.8s-2.5-2.1-8.6-2.1c-17.3-.8-35-1.2-51.1-1.2-25.2 0-46.6 1.2-57.7 6.2-17.3 7-24.7 18.6-24.7 28.9 0 2.5.4 4.9 1.2 7 2.5 8.7 11.1 13.2 20.6 13.2 10.7 0 21.8-5.8 25.5-18.1 18.6 3.7 26.8 17.7 26.8 33.4 0 24.3-19.4 52.8-51.1 52.8-7.4 0-15.3-1.6-23.5-4.9-28.4-11.5-43.6-42.4-43.6-75.8s14-66 43.7-87.8c16.9-12.4 33.4-16.5 50.7-16.5 42.5 0 87.4 25.6 143.9 25.6 27.6 0 58.1-6.2 92.3-24.7 3.7-2.1 7-2.9 10.3-2.9 13.6 0 21.9 16.9 21.9 35 0 20.6-11.1 42.9-37.9 42.9h-2.5c-19-.8-41.6-4.9-60.2-4.9l-9.1.4c-30.9 3.7-39.2 24.7-39.2 55.2 0 34.6 10.3 81.6 10.3 130.3 0 16.5-.8 33-4.1 49.5-12 61.8-61 96-113 99.8l-8.6.4C126 460.3 67 419.9 63.3 354.7z" fill="#000000" opacity="1" data-original="#000000"></path></g></svg>